<svg width="23" height="23" viewBox="0 0 23 23" fill="none" xmlns="http://www.w3.org/2000/svg">
<path d="M20.7812 0.742188H2.21875C1.82714 0.742188 1.45157 0.897754 1.17466 1.17466C0.897754 1.45157 0.742188 1.82714 0.742188 2.21875V20.7812C0.742188 21.1729 0.897754 21.5484 1.17466 21.8253C1.45157 22.1022 1.82714 22.2578 2.21875 22.2578H20.7812C21.1729 22.2578 21.5484 22.1022 21.8253 21.8253C22.1022 21.5484 22.2578 21.1729 22.2578 20.7812V2.21875C22.2578 1.82714 22.1022 1.45157 21.8253 1.17466C21.5484 0.897754 21.1729 0.742188 20.7812 0.742188ZM20.9922 20.7812C20.9922 20.8372 20.97 20.8908 20.9304 20.9304C20.8908 20.97 20.8372 20.9922 20.7812 20.9922H2.21875C2.16281 20.9922 2.10915 20.97 2.06959 20.9304C2.03004 20.8908 2.00781 20.8372 2.00781 20.7812V2.21875C2.00781 2.16281 2.03004 2.10915 2.06959 2.06959C2.10915 2.03004 2.16281 2.00781 2.21875 2.00781H20.7812C20.8372 2.00781 20.8908 2.03004 20.9304 2.06959C20.97 2.10915 20.9922 2.16281 20.9922 2.21875V20.7812ZM7.91406 9.8125V16.5625C7.91406 16.7303 7.84739 16.8913 7.72872 17.01C7.61004 17.1286 7.44908 17.1953 7.28125 17.1953C7.11342 17.1953 6.95246 17.1286 6.83378 17.01C6.71511 16.8913 6.64844 16.7303 6.64844 16.5625V9.8125C6.64844 9.64467 6.71511 9.48371 6.83378 9.36503C6.95246 9.24636 7.11342 9.17969 7.28125 9.17969C7.44908 9.17969 7.61004 9.24636 7.72872 9.36503C7.84739 9.48371 7.91406 9.64467 7.91406 9.8125ZM17.1953 12.7656V16.5625C17.1953 16.7303 17.1286 16.8913 17.01 17.01C16.8913 17.1286 16.7303 17.1953 16.5625 17.1953C16.3947 17.1953 16.2337 17.1286 16.115 17.01C15.9964 16.8913 15.9297 16.7303 15.9297 16.5625V12.7656C15.9297 12.1502 15.6852 11.5601 15.2501 11.1249C14.8149 10.6898 14.2248 10.4453 13.6094 10.4453C12.994 10.4453 12.4038 10.6898 11.9687 11.1249C11.5335 11.5601 11.2891 12.1502 11.2891 12.7656V16.5625C11.2891 16.7303 11.2224 16.8913 11.1037 17.01C10.985 17.1286 10.8241 17.1953 10.6562 17.1953C10.4884 17.1953 10.3275 17.1286 10.2088 17.01C10.0901 16.8913 10.0234 16.7303 10.0234 16.5625V9.8125C10.0234 9.64467 10.0901 9.48371 10.2088 9.36503C10.3275 9.24636 10.4884 9.17969 10.6562 9.17969C10.8241 9.17969 10.985 9.24636 11.1037 9.36503C11.2224 9.48371 11.2891 9.64467 11.2891 9.8125V10.035C11.8106 9.59244 12.4478 9.30824 13.1256 9.21595C13.8033 9.12366 14.4933 9.22714 15.1142 9.51418C15.7351 9.80123 16.2609 10.2599 16.6296 10.836C16.9984 11.4121 17.1946 12.0816 17.1953 12.7656ZM8.33594 6.85938C8.33594 7.06797 8.27408 7.27189 8.15819 7.44533C8.0423 7.61877 7.87758 7.75395 7.68486 7.83378C7.49214 7.91361 7.28008 7.93449 7.07549 7.8938C6.8709 7.8531 6.68297 7.75265 6.53547 7.60515C6.38797 7.45765 6.28752 7.26972 6.24683 7.06513C6.20613 6.86055 6.22702 6.64848 6.30685 6.45576C6.38667 6.26304 6.52185 6.09832 6.6953 5.98243C6.86874 5.86654 7.07265 5.80469 7.28125 5.80469C7.56097 5.80469 7.82923 5.91581 8.02703 6.1136C8.22482 6.31139 8.33594 6.57965 8.33594 6.85938Z" fill="#343330"/>
</svg>
